<svg version="1.1" id="Layer_1" xmlns="http://www.w3.org/2000/svg" xmlns:xlink="http://www.w3.org/1999/xlink" x="0px"
	y="0px" width="100%" viewBox="0 0 600 200" enable-background="new 0 0 600 200" xml:space="preserve">
	<path fill="#E1E7FF" opacity="1.000000" stroke="none" d="
M276.991699,166.989838 
	C263.828918,166.997849 251.163132,166.901352 238.500397,167.055527 
	C231.871811,167.136230 225.245895,167.974487 218.623489,167.917908 
	C200.831558,167.765869 183.013748,167.836441 165.258209,166.866760 
	C136.350510,165.287994 107.358582,163.948746 79.063423,156.972168 
	C63.732510,153.192108 49.280396,147.572876 38.144722,135.649338 
	C31.103970,128.110428 26.934439,119.267868 26.000748,108.974869 
	C24.048632,87.454781 28.534161,66.876511 35.252178,46.640026 
	C39.313541,34.406109 49.489292,31.121889 60.645649,30.093716 
	C81.908028,28.134167 103.189537,26.089933 124.510345,25.129417 
	C152.232361,23.880524 179.997772,23.493320 207.749405,23.029650 
	C238.367752,22.518082 268.991547,22.102531 299.613190,22.088438 
	C326.068512,22.076263 352.524902,22.633686 378.979248,23.041292 
	C392.772003,23.253807 406.565552,23.566889 420.351105,24.051800 
	C435.273041,24.576683 450.215210,24.974146 465.096100,26.112745 
	C486.539948,27.753498 508.006775,29.466810 528.743713,35.938808 
	C543.227783,40.459282 556.737610,46.583019 566.815918,58.398766 
	C572.114075,64.610329 574.889160,72.117744 575.926147,80.157089 
	C577.963806,95.954384 574.590210,111.003189 569.657410,125.923302 
	C566.170166,136.470932 558.491638,141.061340 548.353943,142.945465 
	C538.444885,144.787125 538.069763,145.801819 543.644043,154.415375 
	C547.703979,160.688934 551.695862,167.008530 555.594116,173.383362 
	C556.666504,175.137131 557.294067,177.162964 558.743103,180.475037 
	C548.682617,179.047989 539.722229,178.613693 531.242493,176.366135 
	C520.203552,173.440231 509.471191,169.272995 498.764557,165.223145 
	C494.948456,163.779709 490.694061,161.864975 488.205139,158.866135 
	C482.132660,151.549698 474.928223,153.682907 467.444031,154.609482 
	C456.281403,155.991501 445.061249,156.914169 433.861145,157.986115 
	C420.193878,159.294189 406.525391,160.591492 392.850555,161.817139 
	C387.404755,162.305222 381.944977,162.678085 376.483826,162.945419 
	C367.862915,163.367447 359.236481,163.681793 350.610687,163.996201 
	C331.695160,164.685654 312.777527,165.318207 293.863129,166.036880 
	C288.401215,166.244415 282.947449,166.665955 276.991699,166.989838 
M75.925514,109.830032 
	C76.657272,114.286072 80.237892,113.773804 82.873344,112.996376 
	C84.509155,112.513832 86.553543,109.998047 86.653778,108.291466 
	C87.237358,98.355698 87.195763,88.385216 87.586060,78.435127 
	C87.753891,74.156433 86.481522,71.972153 81.787148,71.906219 
	C77.276115,71.842873 75.910866,74.044601 75.972694,78.001137 
	C75.998573,79.657684 75.935844,81.315613 75.584007,83.717049 
	C75.702652,92.151505 75.821297,100.585960 75.925514,109.830032 
M426.560608,111.614143 
	C432.458557,115.546417 451.842621,114.628426 457.132843,110.166313 
	C460.964722,106.934258 461.395264,101.305405 457.932587,97.226494 
	C456.675232,95.745346 454.988739,94.628471 453.496246,93.343834 
	C459.634827,85.831299 458.775391,78.919075 450.911133,74.540443 
	C448.775513,73.351379 446.305145,72.321831 443.914398,72.127037 
	C439.298004,71.750900 434.588104,71.679314 430.005859,72.226295 
	C428.580902,72.396393 426.381287,74.940613 426.341980,76.445152 
	C426.042511,87.905220 426.190521,99.376984 426.560608,111.614143 
M323.995361,110.094666 
	C324.237854,104.935905 324.600372,99.779007 324.680603,94.617722 
	C324.734131,91.173103 325.063965,88.034447 329.373047,87.817551 
	C333.684570,87.600525 334.631134,90.961655 334.861237,94.168259 
	C335.182251,98.642319 335.039337,103.161964 334.877106,107.654228 
	C334.762238,110.834641 335.115540,113.305176 339.113312,113.476036 
	C342.851562,113.635796 345.419617,112.370163 345.594360,108.346916 
	C345.810944,103.361702 346.241241,98.311043 345.705627,93.383614 
	C344.626740,83.457977 336.678192,78.878334 327.197723,82.241692 
	C326.599274,82.454010 325.987518,82.628807 324.986603,82.946556 
	C324.986603,80.333298 324.839294,78.025803 325.019501,75.744171 
	C325.325439,71.870949 323.113678,70.869820 319.847198,70.702850 
	C316.470245,70.530251 314.921570,72.101959 314.862244,75.406258 
	C314.667847,86.228531 314.321808,97.050697 314.356201,107.871880 
	C314.361969,109.687927 315.907013,112.978836 316.848450,113.018265 
	C319.131317,113.113846 321.477600,111.694855 323.995361,110.094666 
M101.612389,80.213310 
	C100.132751,81.670036 97.482193,83.042580 97.370392,84.597656 
	C96.799538,92.537354 96.828033,100.523773 96.769226,108.494751 
	C96.747780,111.402237 97.524536,113.756630 101.310310,113.522018 
	C104.706596,113.311539 106.593513,111.799995 106.688812,108.333328 
	C106.816811,103.676918 107.045967,99.017097 106.967583,94.363182 
	C106.906372,90.728622 107.787621,87.953377 111.927818,87.813454 
	C115.911598,87.678818 116.966331,90.691185 117.128693,93.819923 
	C117.369537,98.461243 117.308929,103.129700 117.131927,107.777290 
	C117.006615,111.067772 117.682648,113.377052 121.542320,113.478348 
	C125.182655,113.573906 127.815025,112.473320 127.948341,108.313240 
	C128.091873,103.834457 128.589996,99.313751 128.181229,94.880692 
	C127.023827,82.328972 118.934868,78.076912 108.703575,83.273338 
	C106.158722,82.040359 104.280334,81.130287 101.612389,80.213310 
M469.166199,86.732750 
	C468.056488,91.471916 466.039734,96.211685 466.042816,100.950119 
	C466.047882,108.674515 471.211090,113.137413 479.164734,113.862778 
	C488.667572,114.729424 494.786835,111.305840 497.006470,103.880753 
	C499.453552,95.694778 496.953278,87.429893 490.807373,83.389244 
	C484.802155,79.441071 476.196777,80.577019 469.166199,86.732750 
M222.882980,87.504074 
	C218.875610,94.834023 219.100494,103.467125 223.433929,108.654579 
	C227.631134,113.678963 235.985214,115.548508 243.730255,112.703636 
	C245.714188,111.974907 248.817169,109.393639 248.564804,108.351440 
	C247.633942,104.507095 244.703064,107.154663 242.485184,107.413078 
	C240.193436,107.680084 237.689285,108.436028 235.634705,107.809174 
	C233.349197,107.111847 231.466217,105.095200 229.408005,103.652901 
	C229.700165,103.087883 229.992310,102.522865 230.284470,101.957848 
	C232.551208,101.957848 234.817978,101.967018 237.084656,101.955307 
	C239.416351,101.943253 241.748154,101.923439 244.079529,101.884583 
	C248.457626,101.811623 250.392975,99.647270 250.063934,95.221962 
	C249.596146,88.930313 246.030121,83.749733 240.307770,81.998528 
	C233.663605,79.965218 227.791901,81.187309 222.882980,87.504074 
M283.070374,72.768333 
	C280.581665,72.559723 278.083282,72.130203 275.608398,72.238297 
	C274.420288,72.290199 273.276611,73.358261 272.112793,73.966125 
	C273.086456,74.886467 273.935852,76.368637 275.058167,76.616890 
	C277.895294,77.244446 280.855164,77.317253 283.618378,77.597359 
	C283.618378,87.939499 283.455872,97.747154 283.684357,107.545685 
	C283.805511,112.743507 285.841492,114.085793 290.676361,113.392990 
	C294.491516,112.846306 294.901123,110.146179 294.910858,107.166534 
	C294.942230,97.566132 294.922546,87.965561 294.922546,77.958824 
	C298.800964,77.958824 301.455353,78.190880 304.039276,77.864532 
	C305.406830,77.691803 306.651703,76.547890 307.951965,75.842453 
	C306.622345,75.003601 305.331848,73.518806 303.956482,73.435539 
	C297.314362,73.033417 290.649445,73.008446 283.070374,72.768333 
M513.561462,73.917084 
	C506.063690,73.385178 509.474854,79.968979 507.172974,82.452858 
	C505.533936,83.498573 503.894897,84.544296 502.255859,85.590027 
	C503.974945,86.737442 505.694061,87.884850 506.946777,88.720955 
	C508.583557,95.133011 509.403656,101.853210 512.049866,107.754547 
	C514.859497,114.020256 524.334656,116.446350 529.365112,112.673302 
	C516.256714,108.159370 520.145874,97.339622 519.145874,87.759071 
	C521.823608,87.415001 524.042358,87.421005 526.038452,86.757347 
	C527.125488,86.395920 527.834656,84.897964 528.714294,83.912613 
	C527.651978,83.352982 526.615662,82.393547 525.521667,82.322586 
	C523.638489,82.200432 521.719421,82.631676 519.829285,82.829224 
	C518.892456,78.871635 521.346069,73.385292 513.561462,73.917084 
M209.001953,82.613960 
	C205.983109,83.504066 205.991562,81.743210 205.741852,79.450874 
	C205.542435,77.620361 204.691132,74.894501 203.370056,74.324059 
	C198.331757,72.148491 195.265198,74.342354 194.753632,79.783775 
	C194.649460,80.891869 194.397568,81.986076 194.459015,81.618057 
	C191.872772,83.516396 190.343094,84.639198 188.813416,85.761993 
	C190.556473,86.889320 192.299530,88.016647 194.180252,89.233017 
	C194.741058,93.453018 194.988846,98.148178 196.047653,102.652710 
	C197.846497,110.305649 203.877243,114.804619 211.726776,114.773705 
	C212.816696,114.769409 213.903015,113.850380 214.990997,113.354805 
	C214.294601,112.559090 213.735229,111.298248 212.878754,111.045959 
	C208.535355,109.766548 206.731049,106.512901 206.311874,102.499748 
	C205.814865,97.741013 205.823730,92.929436 205.603928,87.926208 
	C207.574020,87.585106 209.121017,87.567360 210.452591,87.022820 
	C212.082687,86.356194 213.532364,85.248306 215.060043,84.331215 
	C213.315338,83.716278 211.570618,83.101334 209.001953,82.613960 
M164.106094,82.787361 
	C161.649750,79.097824 160.149200,80.820175 159.134384,83.779419 
	C157.042160,89.880409 155.088577,96.028946 152.639893,103.493240 
	C149.857635,96.351349 147.506638,90.570572 145.359589,84.715004 
	C143.945648,80.858810 141.289261,80.255043 137.813950,81.353897 
	C134.255386,82.479095 134.542664,85.308296 135.402283,87.891296 
	C137.865143,95.291618 140.391647,102.684196 143.321823,109.905884 
	C144.033813,111.660683 146.602585,114.067818 147.953537,113.855759 
	C150.516495,113.453430 154.155350,111.926048 154.992310,109.895370 
	C158.522919,101.329224 161.185669,92.405380 164.106094,82.787361 
M398.591614,108.838310 
	C401.014191,103.414879 400.099152,100.259834 395.234985,97.664825 
	C393.775879,96.886414 391.972229,96.626350 390.709198,95.639084 
	C389.002716,94.305161 386.248566,92.212730 386.500854,90.961143 
	C386.883911,89.060699 389.240906,87.238197 391.171814,86.056549 
	C393.247437,84.786385 395.799194,84.294334 398.143158,83.462753 
	C398.018219,82.929535 397.893280,82.396317 397.768341,81.863098 
	C391.953613,78.857506 385.969147,80.440041 380.483765,82.804886 
	C378.091339,83.836304 375.420624,87.167030 375.260223,89.610062 
	C375.097107,92.095009 377.528870,95.072540 379.470154,97.261726 
	C380.795654,98.756523 383.305573,99.141449 385.151398,100.247162 
	C388.713531,102.380966 388.670929,105.081558 384.890320,106.775551 
	C382.499969,107.846603 379.749084,108.086006 377.266266,108.990448 
	C376.200317,109.378738 375.404388,110.508278 374.485779,111.301041 
	C375.400757,112.144264 376.261017,113.644470 377.239441,113.725990 
	C384.570557,114.336731 391.930176,114.691505 398.591614,108.838310 
M182.540268,102.173607 
	C182.622696,97.856453 182.590775,93.533211 182.820251,89.223885 
	C183.042099,85.057770 180.590103,84.247795 177.190430,84.090744 
	C173.698669,83.929428 171.212540,84.862045 171.147995,88.845146 
	C171.043213,95.313942 171.000549,101.784142 170.987091,108.253868 
	C170.979324,111.981834 172.920227,113.605721 176.636185,113.516998 
	C180.307770,113.429321 182.177643,111.822319 182.146118,108.056877 
	C182.132278,106.402069 182.371155,104.745140 182.540268,102.173607 
M355.119995,106.087624 
	C355.408417,109.802765 355.384888,113.574860 360.835266,113.538605 
	C366.439545,113.501320 366.658936,109.738922 366.750427,105.737579 
	C366.871796,100.427940 366.798553,95.108261 367.108398,89.810410 
	C367.327972,86.055954 365.968903,84.322937 362.143646,84.088387 
	C358.223053,83.847984 355.565460,84.773178 355.463623,89.250221 
	C355.342957,94.556763 355.225067,99.863373 355.119995,106.087624 
M362.208679,70.699524 
	C358.189026,70.493645 356.189392,72.896896 356.410431,76.415100 
	C356.506470,77.944443 358.883392,80.546356 360.157959,80.507011 
	C362.179321,80.444611 364.975616,79.050591 365.946136,77.360031 
	C367.541077,74.581818 366.280762,71.922859 362.208679,70.699524 
M177.401947,70.688408 
	C173.711685,70.771896 171.676483,72.995537 172.147736,76.320557 
	C172.382935,77.980133 174.834076,80.568840 176.211334,80.524292 
	C178.149323,80.461617 180.924683,78.752365 181.715408,77.009354 
	C183.000412,74.176750 181.626404,71.552048 177.401947,70.688408 
z" />
	<path fill="#611CEB" opacity="1.000000" stroke="none" d="
M426.379883,111.229622 
	C426.190521,99.376984 426.042511,87.905220 426.341980,76.445152 
	C426.381287,74.940613 428.580902,72.396393 430.005859,72.226295 
	C434.588104,71.679314 439.298004,71.750900 443.914398,72.127037 
	C446.305145,72.321831 448.775513,73.351379 450.911133,74.540443 
	C458.775391,78.919075 459.634827,85.831299 453.496246,93.343834 
	C454.988739,94.628471 456.675232,95.745346 457.932587,97.226494 
	C461.395264,101.305405 460.964722,106.934258 457.132843,110.166313 
	C451.842621,114.628426 432.458557,115.546417 426.379883,111.229622 
M449.795837,101.773064 
	C447.651215,96.161919 444.537079,94.493370 437.345490,95.342484 
	C437.345490,99.689919 437.345490,104.083664 437.345490,108.451202 
	C445.671936,109.608040 448.651398,108.171295 449.795837,101.773064 
M437.781982,76.906975 
	C437.781982,81.149796 437.781982,85.392609 437.781982,89.766518 
	C442.446136,90.150276 446.503754,90.272629 447.841980,85.141777 
	C448.840393,81.313843 446.516205,77.964531 442.113922,76.573509 
	C440.897644,76.189194 439.534943,76.268387 437.781982,76.906975 
z" />
	<path fill="#621DEB" opacity="1.000000" stroke="none" d="
M323.896851,110.490425 
	C321.477600,111.694855 319.131317,113.113846 316.848450,113.018265 
	C315.907013,112.978836 314.361969,109.687927 314.356201,107.871880 
	C314.321808,97.050697 314.667847,86.228531 314.862244,75.406258 
	C314.921570,72.101959 316.470245,70.530251 319.847198,70.702850 
	C323.113678,70.869820 325.325439,71.870949 325.019501,75.744171 
	C324.839294,78.025803 324.986603,80.333298 324.986603,82.946556 
	C325.987518,82.628807 326.599274,82.454010 327.197723,82.241692 
	C336.678192,78.878334 344.626740,83.457977 345.705627,93.383614 
	C346.241241,98.311043 345.810944,103.361702 345.594360,108.346916 
	C345.419617,112.370163 342.851562,113.635796 339.113312,113.476036 
	C335.115540,113.305176 334.762238,110.834641 334.877106,107.654228 
	C335.039337,103.161964 335.182251,98.642319 334.861237,94.168259 
	C334.631134,90.961655 333.684570,87.600525 329.373047,87.817551 
	C325.063965,88.034447 324.734131,91.173103 324.680603,94.617722 
	C324.600372,99.779007 324.237854,104.935905 323.896851,110.490425 
z" />
	<path fill="#611DEB" opacity="1.000000" stroke="none" d="
M102.007172,80.216766 
	C104.280334,81.130287 106.158722,82.040359 108.703575,83.273338 
	C118.934868,78.076912 127.023827,82.328972 128.181229,94.880692 
	C128.589996,99.313751 128.091873,103.834457 127.948341,108.313240 
	C127.815025,112.473320 125.182655,113.573906 121.542320,113.478348 
	C117.682648,113.377052 117.006615,111.067772 117.131927,107.777290 
	C117.308929,103.129700 117.369537,98.461243 117.128693,93.819923 
	C116.966331,90.691185 115.911598,87.678818 111.927818,87.813454 
	C107.787621,87.953377 106.906372,90.728622 106.967583,94.363182 
	C107.045967,99.017097 106.816811,103.676918 106.688812,108.333328 
	C106.593513,111.799995 104.706596,113.311539 101.310310,113.522018 
	C97.524536,113.756630 96.747780,111.402237 96.769226,108.494751 
	C96.828033,100.523773 96.799538,92.537354 97.370392,84.597656 
	C97.482193,83.042580 100.132751,81.670036 102.007172,80.216766 
z" />
	<path fill="#611CEB" opacity="1.000000" stroke="none" d="
M469.410583,86.457092 
	C476.196777,80.577019 484.802155,79.441071 490.807373,83.389244 
	C496.953278,87.429893 499.453552,95.694778 497.006470,103.880753 
	C494.786835,111.305840 488.667572,114.729424 479.164734,113.862778 
	C471.211090,113.137413 466.047882,108.674515 466.042816,100.950119 
	C466.039734,96.211685 468.056488,91.471916 469.410583,86.457092 
M481.520935,87.732132 
	C477.019196,88.150223 475.691193,91.597641 475.739319,95.089615 
	C475.790649,98.814880 476.763641,102.638214 478.080719,106.137802 
	C478.331299,106.803596 482.682861,106.997009 484.074158,105.966393 
	C488.686615,102.549606 487.344635,90.890701 481.520935,87.732132 
z" />
	<path fill="#621EEB" opacity="1.000000" stroke="none" d="
M223.082428,87.190804 
	C227.791901,81.187309 233.663605,79.965218 240.307770,81.998528 
	C246.030121,83.749733 249.596146,88.930313 250.063934,95.221962 
	C250.392975,99.647270 248.457626,101.811623 244.079529,101.884583 
	C241.748154,101.923439 239.416351,101.943253 237.084656,101.955307 
	C234.817978,101.967018 232.551208,101.957848 230.284470,101.957848 
	C229.992310,102.522865 229.700165,103.087883 229.408005,103.652901 
	C231.466217,105.095200 233.349197,107.111847 235.634705,107.809174 
	C237.689285,108.436028 240.193436,107.680084 242.485184,107.413078 
	C244.703064,107.154663 247.633942,104.507095 248.564804,108.351440 
	C248.817169,109.393639 245.714188,111.974907 243.730255,112.703636 
	C235.985214,115.548508 227.631134,113.678963 223.433929,108.654579 
	C219.100494,103.467125 218.875610,94.834023 223.082428,87.190804 
M237.297089,96.051117 
	C241.012817,96.382217 240.711060,93.604057 239.707352,91.922447 
	C238.534866,89.958054 236.020737,87.116364 234.505600,87.350723 
	C230.046097,88.040504 229.852417,91.932930 230.138992,96.065704 
	C232.440048,96.065704 234.408066,96.065704 237.297089,96.051117 
z" />
	<path fill="#5D16EA" opacity="1.000000" stroke="none" d="
M283.531494,72.809036 
	C290.649445,73.008446 297.314362,73.033417 303.956482,73.435539 
	C305.331848,73.518806 306.622345,75.003601 307.951965,75.842438 
	C306.651703,76.547890 305.406830,77.691803 304.039276,77.864532 
	C301.455353,78.190880 298.800964,77.958824 294.922546,77.958824 
	C294.922546,87.965561 294.942230,97.566132 294.910858,107.166534 
	C294.901123,110.146179 294.491516,112.846306 290.676361,113.392990 
	C285.841492,114.085793 283.805511,112.743507 283.684357,107.545685 
	C283.455872,97.747154 283.618378,87.939499 283.618378,77.597359 
	C280.855164,77.317253 277.895294,77.244446 275.058167,76.616890 
	C273.935852,76.368637 273.086456,74.886467 272.112793,73.966125 
	C273.276611,73.358261 274.420288,72.290199 275.608398,72.238297 
	C278.083282,72.130203 280.581665,72.559723 283.531494,72.809036 
M298.969360,75.180862 
	C298.563751,75.275421 298.158173,75.369987 297.752563,75.464554 
	C297.841736,75.584686 297.946136,75.816307 298.017578,75.806549 
	C298.429260,75.750313 298.833099,75.636993 298.969360,75.180862 
M305.482849,75.588242 
	C305.482849,75.588242 305.416382,75.477493 305.482849,75.588242 
z" />
	<path fill="#611DEB" opacity="1.000000" stroke="none" d="
M513.994080,73.917419 
	C521.346069,73.385292 518.892456,78.871635 519.829285,82.829224 
	C521.719421,82.631676 523.638489,82.200432 525.521667,82.322586 
	C526.615662,82.393547 527.651978,83.352982 528.714294,83.912613 
	C527.834656,84.897964 527.125488,86.395920 526.038452,86.757347 
	C524.042358,87.421005 521.823608,87.415001 519.145874,87.759071 
	C520.145874,97.339622 516.256714,108.159370 529.365112,112.673302 
	C524.334656,116.446350 514.859497,114.020256 512.049866,107.754547 
	C509.403656,101.853210 508.583557,95.133011 506.946777,88.720955 
	C505.694061,87.884850 503.974945,86.737442 502.255859,85.590019 
	C503.894897,84.544296 505.533936,83.498573 507.172974,82.452858 
	C509.474854,79.968979 506.063690,73.385178 513.994080,73.917419 
z" />
	<path fill="#621EEB" opacity="1.000000" stroke="none" d="
M209.413940,82.550179 
	C211.570618,83.101334 213.315338,83.716278 215.060043,84.331215 
	C213.532364,85.248306 212.082687,86.356194 210.452591,87.022820 
	C209.121017,87.567360 207.574020,87.585106 205.603928,87.926208 
	C205.823730,92.929436 205.814865,97.741013 206.311874,102.499748 
	C206.731049,106.512901 208.535355,109.766548 212.878754,111.045959 
	C213.735229,111.298248 214.294601,112.559090 214.990997,113.354805 
	C213.903015,113.850380 212.816696,114.769409 211.726776,114.773705 
	C203.877243,114.804619 197.846497,110.305649 196.047653,102.652710 
	C194.988846,98.148178 194.741058,93.453018 194.180252,89.233017 
	C192.299530,88.016647 190.556473,86.889320 188.813416,85.761993 
	C190.343094,84.639198 191.872772,83.516396 194.459015,81.618057 
	C194.397568,81.986076 194.649460,80.891869 194.753632,79.783775 
	C195.265198,74.342354 198.331757,72.148491 203.370056,74.324059 
	C204.691132,74.894501 205.542435,77.620361 205.741852,79.450874 
	C205.991562,81.743210 205.983109,83.504066 209.413940,82.550179 
z" />
	<path fill="#621DEB" opacity="1.000000" stroke="none" d="
M164.135986,83.199875 
	C161.185669,92.405380 158.522919,101.329224 154.992310,109.895370 
	C154.155350,111.926048 150.516495,113.453430 147.953537,113.855759 
	C146.602585,114.067818 144.033813,111.660683 143.321823,109.905884 
	C140.391647,102.684196 137.865143,95.291618 135.402283,87.891296 
	C134.542664,85.308296 134.255386,82.479095 137.813950,81.353897 
	C141.289261,80.255043 143.945648,80.858810 145.359589,84.715004 
	C147.506638,90.570572 149.857635,96.351349 152.639893,103.493240 
	C155.088577,96.028946 157.042160,89.880409 159.134384,83.779419 
	C160.149200,80.820175 161.649750,79.097824 164.135986,83.199875 
z" />
	<path fill="#611CEB" opacity="1.000000" stroke="none" d="
M398.322571,109.110069 
	C391.930176,114.691505 384.570557,114.336731 377.239441,113.725990 
	C376.261017,113.644470 375.400757,112.144264 374.485779,111.301041 
	C375.404388,110.508278 376.200317,109.378738 377.266266,108.990448 
	C379.749084,108.086006 382.499969,107.846603 384.890320,106.775551 
	C388.670929,105.081558 388.713531,102.380966 385.151398,100.247162 
	C383.305573,99.141449 380.795654,98.756523 379.470154,97.261726 
	C377.528870,95.072540 375.097107,92.095009 375.260223,89.610062 
	C375.420624,87.167030 378.091339,83.836304 380.483765,82.804886 
	C385.969147,80.440041 391.953613,78.857506 397.768341,81.863098 
	C397.893280,82.396317 398.018219,82.929535 398.143158,83.462753 
	C395.799194,84.294334 393.247437,84.786385 391.171814,86.056549 
	C389.240906,87.238197 386.883911,89.060699 386.500854,90.961143 
	C386.248566,92.212730 389.002716,94.305161 390.709198,95.639084 
	C391.972229,96.626350 393.775879,96.886414 395.234985,97.664825 
	C400.099152,100.259834 401.014191,103.414879 398.322571,109.110069 
z" />
	<path fill="#5F18EB" opacity="1.000000" stroke="none" d="
M75.913399,82.972916 
	C75.935844,81.315613 75.998573,79.657684 75.972694,78.001137 
	C75.910866,74.044601 77.276115,71.842873 81.787148,71.906219 
	C86.481522,71.972153 87.753891,74.156433 87.586060,78.435127 
	C87.195763,88.385216 87.237358,98.355698 86.653778,108.291466 
	C86.553543,109.998047 84.509155,112.513832 82.873344,112.996376 
	C80.237892,113.773804 76.657272,114.286072 76.230240,109.129745 
	C76.678711,102.982040 76.968140,97.533051 76.909065,92.087837 
	C76.876068,89.046288 76.264336,86.011017 75.913399,82.972916 
z" />
	<path fill="#611CEB" opacity="1.000000" stroke="none" d="
M182.517776,102.631393 
	C182.371155,104.745140 182.132278,106.402069 182.146118,108.056877 
	C182.177643,111.822319 180.307770,113.429321 176.636185,113.516998 
	C172.920227,113.605721 170.979324,111.981834 170.987091,108.253868 
	C171.000549,101.784142 171.043213,95.313942 171.147995,88.845146 
	C171.212540,84.862045 173.698669,83.929428 177.190430,84.090744 
	C180.590103,84.247795 183.042099,85.057770 182.820251,89.223885 
	C182.590775,93.533211 182.622696,97.856453 182.517776,102.631393 
z" />
	<path fill="#611DEB" opacity="1.000000" stroke="none" d="
M355.112976,105.628784 
	C355.225067,99.863373 355.342957,94.556763 355.463623,89.250221 
	C355.565460,84.773178 358.223053,83.847984 362.143646,84.088387 
	C365.968903,84.322937 367.327972,86.055954 367.108398,89.810410 
	C366.798553,95.108261 366.871796,100.427940 366.750427,105.737579 
	C366.658936,109.738922 366.439545,113.501320 360.835266,113.538605 
	C355.384888,113.574860 355.408417,109.802765 355.112976,105.628784 
z" />
	<path fill="#631FEB" opacity="1.000000" stroke="none" d="
M362.554260,70.767021 
	C366.280762,71.922859 367.541077,74.581818 365.946136,77.360031 
	C364.975616,79.050591 362.179321,80.444611 360.157959,80.507011 
	C358.883392,80.546356 356.506470,77.944443 356.410431,76.415100 
	C356.189392,72.896896 358.189026,70.493645 362.554260,70.767021 
z" />
	<path fill="#631FEB" opacity="1.000000" stroke="none" d="
M177.765289,70.738937 
	C181.626404,71.552048 183.000412,74.176750 181.715408,77.009354 
	C180.924683,78.752365 178.149323,80.461617 176.211334,80.524292 
	C174.834076,80.568840 172.382935,77.980133 172.147736,76.320557 
	C171.676483,72.995537 173.711685,70.771896 177.765289,70.738937 
z" />
	<path fill="#6D2FED" opacity="1.000000" stroke="none" d="
M75.748703,83.344986 
	C76.264336,86.011017 76.876068,89.046288 76.909065,92.087837 
	C76.968140,97.533051 76.678711,102.982040 76.237450,108.724930 
	C75.821297,100.585960 75.702652,92.151505 75.748703,83.344986 
z" />
	<path fill="#DBDFFE" opacity="1.000000" stroke="none" d="
M449.830719,102.159874 
	C448.651398,108.171295 445.671936,109.608040 437.345490,108.451202 
	C437.345490,104.083664 437.345490,99.689919 437.345490,95.342484 
	C444.537079,94.493370 447.651215,96.161919 449.830719,102.159874 
z" />
	<path fill="#DDE3FE" opacity="1.000000" stroke="none" d="
M438.010681,76.520950 
	C439.534943,76.268387 440.897644,76.189194 442.113922,76.573509 
	C446.516205,77.964531 448.840393,81.313843 447.841980,85.141777 
	C446.503754,90.272629 442.446136,90.150276 437.781982,89.766518 
	C437.781982,85.392609 437.781982,81.149796 438.010681,76.520950 
z" />
	<path fill="#DCE1FE" opacity="1.000000" stroke="none" d="
M481.926758,87.764420 
	C487.344635,90.890701 488.686615,102.549606 484.074158,105.966393 
	C482.682861,106.997009 478.331299,106.803596 478.080719,106.137802 
	C476.763641,102.638214 475.790649,98.814880 475.739319,95.089615 
	C475.691193,91.597641 477.019196,88.150223 481.926758,87.764420 
z" />
	<path fill="#DEE4FE" opacity="1.000000" stroke="none" d="
M236.836594,96.058411 
	C234.408066,96.065704 232.440048,96.065704 230.138992,96.065704 
	C229.852417,91.932930 230.046097,88.040504 234.505600,87.350723 
	C236.020737,87.116364 238.534866,89.958054 239.707352,91.922447 
	C240.711060,93.604057 241.012817,96.382217 236.836594,96.058411 
z" />
	<path fill="#611CEB" opacity="1.000000" stroke="none" d="
M299.104492,75.361938 
	C298.833099,75.636993 298.429260,75.750313 298.017578,75.806549 
	C297.946136,75.816307 297.841736,75.584686 297.752563,75.464554 
	C298.158173,75.369987 298.563751,75.275421 299.104492,75.361938 
z" />
	<path fill="#611CEB" opacity="1.000000" stroke="none" d="
M305.449615,75.532867 
	C305.416382,75.477493 305.482849,75.588242 305.449615,75.532867 
z" />
</svg>